<?xml version="1.0" encoding="UTF-8"?>
<svg id="_图层_1" data-name="图层 1" xmlns="http://www.w3.org/2000/svg" viewBox="0 0 976 437.61">
  <defs>
    <style>
      .cls-1 {
        fill: #29abe2;
      }

      .cls-2 {
        fill: #fbb03b;
      }
    </style>
  </defs>
  <g>
    <path class="cls-2" d="m149.91,287.66h-2.13l-7.09-3.36c-4.49-13.45-8.15-27.35-10.99-41.7-2.83-14.34-5.55-28.58-8.15-42.7l-63.44-.67c-6.38,17.71-10.99,41.7-13.82,71.96l-3.54,6.72c-3.07,2.24-6.73,3.36-10.99,3.36h-2.13l-6.73-3.36c-2.83-3.58-4.25-7.51-4.25-11.77v-2.02c5.43-35.64,14.29-70.55,26.58-104.74,12.28-34.18,25.75-68.09,40.4-101.72,3.31-4.04,6.61-6.05,9.92-6.05,3.54,0,7.09,1.91,10.63,5.72,16.06,35.2,28.41,71.4,37.03,108.61,8.62,37.21,16.12,74.54,22.5,111.97l-3.54,6.39c-2.83,2.24-6.26,3.36-10.28,3.36Zm-34.02-113.32c-6.15-28.47-13.94-51.45-23.39-68.93-5.44,10.99-9.87,22.14-13.29,33.46-3.43,11.32-7.27,22.7-11.52,34.13l48.2,1.35Z"/>
    <path d="m324.27,291.7h-2.13l-6.73-3.36c-2.83-4.71-4.73-9.8-5.67-15.3-.95-5.49-1.89-11.26-2.83-17.32-11.11,13.45-21.74,22.19-31.9,26.23-7.56,3.14-15.01,4.71-22.33,4.71-2.83,0-7.39-.5-13.64-1.51-6.26-1.01-13.29-5.83-21.09-14.46-7.8-8.63-12.76-17.65-14.88-27.07-4.02-15.91-6.02-35.08-6.02-57.5,0-5.83.18-12.33.53-19.5.35-7.17,2.3-13.33,5.85-18.49,3.31-2.69,7.09-4.04,11.34-4.04h1.77l7.09,3.36c2.36,3.14,3.54,6.61,3.54,10.42v2.02c-1.89,19.28-2.83,33.85-2.83,43.71,0,24.44,5.08,41.47,15.24,51.11,3.54,3.81,7.8,5.72,12.76,5.72,1.89,0,5.26-.67,10.1-2.02,4.84-1.35,11.16-7.06,18.96-17.15,7.8-10.09,12.87-22.87,15.24-38.33,2.36-15.47,5.79-30.48,10.28-45.06,2.83-2.02,6.26-3.03,10.28-3.03,1.18,0,4.25,1.01,9.21,3.03,2.83,4.93,4.25,10.31,4.25,16.14,0,2.24-.24,4.6-.71,7.06.47,38.11,1.59,62.04,3.37,71.79,1.77,9.75,3.37,19.45,4.78,29.09l-3.54,6.39c-2.6,2.24-6.02,3.36-10.28,3.36Z"/>
    <path d="m456.81,289.68c-10.16,0-19.85-4.59-29.06-13.79-8.27-8.07-13.59-19.22-15.95-33.46-2.36-14.23-4.25-38.84-5.67-73.81l-25.52,1.35-6.73-3.36c-2.84-3.14-4.25-6.73-4.25-10.76v-1.68l3.54-6.73c4.25-2.91,9.21-4.37,14.88-4.37h7.44l12.05-.34-.35-16.48c0-17.49,1.3-29.36,3.9-35.64,2.84-2.24,6.26-3.36,10.28-3.36h2.13l7.09,3.36c2.6,3.59,3.9,7.51,3.9,11.77l-.35,3.7.71,35.64,56.35-1.34,6.73,3.03c2.36,2.69,3.54,6.05,3.54,10.09v2.02l-3.54,6.39c-8.98,2.92-18.67,4.37-29.06,4.37h-7.09c-9.69,0-19.14.56-28.35,1.68,1.42,31.83,2.66,53.02,3.72,63.55,1.06,10.54,3.37,18.49,6.91,23.87,2.6,4.26,7.09,6.39,13.47,6.39,7.8,0,20.32-2.8,37.57-8.41l7.09,3.03c2.36,2.69,3.54,6.05,3.54,10.09v2.02l-4.96,8.07c-12.76,8.74-27.41,13.11-43.94,13.11Z"/>
    <path d="m671.22,291.7h-2.13l-7.09-3.36c-3.31-3.81-4.96-8.07-4.96-12.78v-1.01c2.36-8.74,3.54-23.09,3.54-43.04s-.89-33.74-2.66-42.03c-1.77-8.29-5.26-15.47-10.46-21.52-3.78-4.04-8.5-6.05-14.17-6.05-2.84,0-7.56.9-14.18,2.69-6.62,1.8-11.99,7.51-16.12,17.15-4.14,9.64-8.21,18.72-12.23,27.24-4.02,8.52-6.5,17.82-7.44,27.91l1.42,40.35-3.19,6.39c-2.84,2.24-6.38,3.36-10.63,3.36h-2.13l-6.73-3.36c-3.31-6.5-5.32-13.62-6.02-21.35-.71-7.73-1.06-74.82-1.06-201.25,1.18-8.29,6.02-12.44,14.53-12.44h2.13l7.09,3.36,3.54,6.39v104.24c4.01-4.71,8.38-9.19,13.11-13.45,10.16-9.64,21.03-14.46,32.6-14.46,3.54,0,8.86.73,15.95,2.19,7.09,1.46,14.76,6.11,23.04,13.95,8.27,7.85,13.82,17.37,16.66,28.58,2.36,10.31,3.54,24.77,3.54,43.38,0,1.57-.06,8.07-.18,19.5-.12,11.43-.24,20.57-.35,27.4-.12,6.84-1.83,13.06-5.14,18.66-2.84,2.24-6.26,3.36-10.28,3.36Z"/>
  </g>
  <path class="cls-1" d="m976,83.41c0,1.56-.32,3.05-.97,4.47-.65,1.42-1.53,2.69-2.66,3.81-1.13,1.12-2.46,2.03-3.99,2.71-1.53.68-3.18,1.03-4.95,1.03s-3.44-.19-5.01-.59c-1.57-.39-3.77-.85-6.58-1.39-2.82-.54-6.58-1-11.29-1.39-4.71-.39-11.09-.59-19.14-.59-1.29,0-2.28.32-2.96.95-.69.64-1.23,2.08-1.63,4.32-.72,4.1-1.45,9.57-2.17,16.41-.72,6.84-1.53,14.55-2.42,23.14-.4,3.91-.83,7.79-1.27,11.65-.44,3.86-.87,7.52-1.27,10.99-.4,3.47-.81,6.67-1.21,9.59-.4,2.93-.77,5.42-1.09,7.47-.24,1.86-.52,4.15-.85,6.88-.32,2.74-.65,5.69-.97,8.86-.32,3.17-.66,6.45-1.03,9.81s-.75,6.67-1.15,9.89c-.32,2.74-.62,5.32-.91,7.76-.28,2.44-.54,4.91-.79,7.4-.24,2.49-.46,5.05-.66,7.69-.2,2.64-.38,5.52-.54,8.64-.16,2.83-.26,5.59-.3,8.28-.04,2.69-.06,5.15-.06,7.4,0,3.22.1,6.4.3,9.52.2,3.13.3,5.96.3,8.5s-.42,4.96-1.27,6.96c-.84,2-1.99,3.69-3.44,5.05s-3.08,2.42-4.89,3.15-3.68,1.1-5.62,1.1c-3.54,0-6.1-1.39-7.67-4.17s-2.36-6.96-2.36-12.52c0-4.98.18-9.59.54-13.84s.66-8.47.91-12.67c.16-2.25.42-5.22.79-8.94.36-3.71.8-7.69,1.33-11.94.52-4.25,1.04-8.54,1.57-12.89.52-4.34.95-8.28,1.27-11.79.56-5.17,1.09-9.59,1.57-13.26.48-3.66.98-7.08,1.51-10.25.52-3.17,1.04-6.37,1.57-9.59.52-3.22,1.07-6.93,1.63-11.13.32-2.44.74-5.54,1.27-9.3.52-3.76,1.07-7.81,1.63-12.16.56-4.34,1.15-8.79,1.75-13.33.6-4.54,1.15-8.74,1.63-12.6.48-3.86.86-7.2,1.15-10.03.28-2.83.42-4.74.42-5.71,0-2.64-1.01-3.96-3.02-3.96-1.77,0-4.11.2-7,.59-2.9.39-6.1.88-9.6,1.46-3.5.59-7.21,1.22-11.11,1.9-3.91.68-7.75,1.32-11.53,1.9-4.19.59-8.45,1.2-12.8,1.83-4.35.64-8.45,1.2-12.32,1.68-3.86.49-7.33.93-10.39,1.32-3.06.39-5.43.68-7.12.88-1.21.49-2.05,1.2-2.54,2.12-.48.93-.93,2.56-1.33,4.91-.89,5.67-1.81,11.43-2.78,17.29-.97,5.86-1.97,12.55-3.02,20.07-1.05,7.42-2.03,14.28-2.96,20.58-.93,6.3-1.83,12.38-2.72,18.24-.89,5.86-1.71,11.72-2.48,17.58-.77,5.86-1.47,12.11-2.11,18.75-.4,2.83-.85,6.2-1.33,10.11-.48,3.91-.93,7.94-1.33,12.08-.4,4.15-.75,8.2-1.03,12.16-.28,3.96-.42,7.45-.42,10.47,0,2.83.12,5.35.36,7.54s.36,4.08.36,5.64c0,2.34-.4,4.57-1.21,6.67-.81,2.1-1.89,3.96-3.26,5.57-1.37,1.61-2.96,2.88-4.77,3.81-1.81.93-3.72,1.39-5.74,1.39-2.17,0-3.95-.51-5.31-1.54-1.37-1.03-2.46-2.39-3.26-4.1-.81-1.71-1.35-3.61-1.63-5.71-.28-2.1-.42-4.17-.42-6.23s.14-4.69.42-7.62c.28-2.93.64-6.08,1.09-9.45.44-3.37.91-6.91,1.39-10.62.48-3.71.92-7.42,1.33-11.13.97-8.79,2.17-17.92,3.62-27.39,1.45-9.47,2.78-18.36,3.99-26.66.72-5.17,1.43-9.81,2.11-13.92.68-4.1,1.33-8.01,1.93-11.72.6-3.71,1.19-7.35,1.75-10.91.56-3.56,1.17-7.35,1.81-11.35.56-3.42,1.11-6.69,1.63-9.81.52-3.12,1.01-5.98,1.45-8.57.44-2.59.8-4.81,1.09-6.67.28-1.85.42-3.22.42-4.1,0-2.44-1.05-3.66-3.14-3.66-1.05,0-2.78.07-5.19.22-2.42.15-5.03.32-7.85.51-2.82.2-5.66.37-8.51.51-2.86.15-5.25.22-7.19.22-2.66,0-5.13.29-7.43.88s-4.35,1.25-6.16,1.98c-1.81.73-3.34,1.42-4.59,2.05-1.25.64-2.11.95-2.6.95-3.54,0-6.5-.93-8.88-2.78-2.38-1.85-3.56-4.83-3.56-8.94,0-3.71.66-6.76,1.99-9.16,1.33-2.39,3.16-4.3,5.5-5.71,2.33-1.41,5.05-2.42,8.15-3,3.1-.59,6.46-.88,10.08-.88,6.68,0,12.74-.07,18.18-.22,5.43-.15,10.49-.34,15.16-.59,4.67-.24,9.08-.51,13.22-.81,4.15-.29,8.27-.63,12.38-1.03,3.06-.29,6.54-.68,10.45-1.17,3.9-.49,7.97-1.03,12.2-1.61,4.23-.59,8.43-1.17,12.62-1.76,4.19-.59,8.01-1.07,11.47-1.46,2.42-.29,5.72-.76,9.9-1.39,4.19-.63,8.94-1.34,14.25-2.12,5.31-.78,11.05-1.59,17.21-2.42,6.16-.83,12.4-1.61,18.72-2.34,6.32-.73,12.58-1.32,18.78-1.76,6.2-.44,12-.66,17.39-.66,4.83,0,8.92.37,12.26,1.1,3.34.73,6.38,1.83,9.12,3.3.88.49,1.69,1.25,2.42,2.27s1.33,2.17,1.81,3.44c.48,1.27.86,2.59,1.15,3.96.28,1.37.42,2.59.42,3.66Z"/>
</svg>